<?xml version="1.0" standalone="no"?>
<!DOCTYPE svg PUBLIC "-//W3C//DTD SVG 20010904//EN"
 "http://www.w3.org/TR/2001/REC-SVG-20010904/DTD/svg10.dtd">
<svg version="1.0" xmlns="http://www.w3.org/2000/svg"
 width="1216.000000pt" height="1280.000000pt" viewBox="0 0 1216.000000 1280.000000"
 preserveAspectRatio="xMidYMid meet">
<g transform="translate(0.000000,1280.000000) scale(0.100000,-0.100000)"
fill="#4caf50" stroke="none">
<path d="M7005 12768 c-3 -7 -25 -83 -51 -168 -62 -211 -142 -462 -153 -479
-7 -11 -27 -11 -112 -2 -405 43 -869 39 -1304 -10 -2683 -302 -4856 -2370
-5294 -5039 -113 -687 -113 -1293 0 -1980 274 -1671 1236 -3149 2659 -4086
847 -557 1843 -898 2845 -974 83 -6 194 -15 248 -21 125 -12 349 -12 474 0 54
6 166 15 248 21 1615 122 3139 913 4183 2170 792 954 1273 2118 1376 3335 9
99 20 234 26 300 13 151 13 349 0 485 -5 58 -14 170 -20 250 -84 1110 -499
2217 -1170 3120 -808 1086 -1929 1862 -3230 2233 -95 27 -117 37 -126 57 -175
366 -238 463 -424 651 -131 132 -167 160 -175 137z m-462 -1223 c15 -4 27 -13
27 -21 0 -8 -22 -69 -49 -136 -78 -196 -257 -702 -299 -849 -71 -242 -90 -440
-56 -588 15 -68 68 -171 91 -178 20 -7 329 466 477 730 159 282 268 545 334
805 34 130 40 147 60 150 29 4 29 -15 -3 -168 -54 -255 -142 -499 -286 -791
-109 -220 -168 -325 -444 -784 -258 -429 -355 -601 -461 -818 -42 -86 -80
-157 -85 -157 -10 0 -6 -21 -79 335 -109 533 -198 940 -199 908 -1 -17 28
-262 64 -545 63 -501 91 -748 117 -1033 8 -89 13 -296 13 -570 0 -354 -3 -456
-18 -575 -40 -318 -85 -525 -166 -768 -68 -203 -119 -322 -139 -322 -19 0
-150 75 -264 152 -170 113 -363 293 -489 453 -60 76 -159 220 -159 231 0 4 16
32 37 62 134 203 147 577 42 1232 -95 593 -196 928 -395 1309 -122 234 -258
424 -429 599 -163 169 -303 276 -462 356 l-73 36 0 -37 c0 -21 5 -130 10 -243
7 -138 7 -349 -1 -647 -18 -732 7 -1035 122 -1513 121 -505 283 -845 509
-1070 90 -89 168 -142 254 -172 53 -18 156 -24 156 -9 0 5 -21 55 -46 112 -90
201 -160 412 -225 674 -54 218 -95 440 -179 970 -79 500 -128 760 -189 1002
-23 89 -41 168 -41 175 1 59 87 -209 150 -467 49 -203 82 -357 190 -910 136
-693 254 -1080 434 -1430 210 -409 514 -742 881 -966 47 -29 90 -58 96 -65 13
-16 -86 -218 -347 -709 -411 -773 -558 -1114 -663 -1545 -79 -325 -108 -656
-81 -934 7 -75 7 -102 -2 -107 -6 -4 -34 2 -62 13 -71 28 -70 28 -67 -19 2
-38 -1 -44 -31 -63 -55 -34 -70 -28 -122 51 -26 39 -50 68 -54 64 -4 -4 -7
-23 -7 -43 0 -34 -2 -37 -32 -40 -37 -4 -44 -17 -33 -67 14 -61 6 -70 -77 -80
-39 -5 -56 -2 -93 18 -25 14 -54 37 -64 51 -17 22 -18 30 -8 63 13 44 7 55
-49 84 -71 36 -79 25 -57 -69 19 -87 -18 -141 -88 -127 -38 7 -40 2 -23 -56
23 -74 -26 -89 -126 -39 -33 16 -68 30 -77 30 -10 0 -37 -14 -62 -31 -60 -43
-76 -35 -76 35 0 80 -28 86 -52 11 -8 -24 -23 -44 -38 -52 -22 -11 -25 -18
-22 -61 6 -80 -23 -94 -130 -67 -23 6 -29 3 -39 -19 -16 -34 -37 -33 -87 4
-74 53 -92 40 -141 -105 -20 -60 -27 -95 -22 -113 l7 -27 3494 0 3494 0 7 27
c5 18 -2 53 -22 113 -49 145 -67 158 -141 105 -50 -37 -71 -38 -87 -4 -10 22
-16 25 -39 19 -107 -27 -136 -13 -130 67 3 43 0 50 -22 61 -15 8 -30 28 -38
52 -24 75 -52 69 -52 -11 0 -70 -16 -78 -76 -35 -25 17 -52 31 -62 31 -9 0
-44 -14 -77 -30 -98 -49 -151 -34 -127 34 21 57 17 68 -22 61 -70 -14 -107 40
-88 127 22 94 14 105 -57 69 -56 -29 -62 -40 -49 -84 10 -33 9 -41 -9 -64 -11
-15 -39 -38 -64 -51 -35 -19 -53 -22 -89 -17 -87 12 -94 19 -80 80 11 50 4 63
-33 67 -30 3 -32 6 -32 40 0 20 -3 39 -7 43 -4 4 -28 -25 -54 -64 -52 -79 -67
-85 -122 -51 -29 18 -33 26 -32 58 1 20 2 40 1 44 -1 4 -22 -2 -48 -13 -82
-35 -140 -43 -168 -25 -32 21 -32 50 1 93 16 21 20 33 12 33 -34 1 -43 20 -48
102 l-5 83 -38 -1 c-24 -1 -46 -9 -61 -23 -29 -27 -38 -18 -46 49 l-6 45 -22
-47 c-12 -27 -28 -48 -36 -48 -8 0 -27 16 -43 36 -29 36 -30 36 -59 21 -17 -9
-54 -34 -82 -56 -28 -23 -58 -41 -66 -41 -15 0 -30 37 -41 103 -7 42 -5 41
-39 25 -24 -10 -30 -7 -79 39 -63 59 -91 76 -116 68 -25 -8 -55 -52 -61 -90
-7 -42 -32 -42 -79 0 -50 46 -71 41 -71 -15 0 -47 -8 -49 -40 -15 -30 32 -80
35 -80 4 0 -11 -18 -37 -41 -57 l-41 -37 6 -72 c6 -64 5 -74 -14 -93 -33 -33
-67 -24 -127 33 l-33 31 0 -26 c0 -57 -37 -44 -55 18 -12 43 -30 45 -30 5 0
-41 -7 -45 -64 -31 -75 18 -89 3 -46 -48 32 -38 31 -50 -2 -64 -16 -7 -41 -21
-56 -31 -24 -16 -28 -25 -23 -48 5 -29 5 -29 -44 -29 -49 0 -50 1 -44 25 8 32
-9 53 -63 77 -24 10 -43 24 -43 30 0 5 11 23 25 40 43 51 28 66 -45 47 -56
-14 -65 -10 -65 32 0 40 -18 38 -30 -5 -18 -62 -55 -75 -55 -18 l0 26 -32 -31
c-61 -57 -95 -66 -128 -33 -19 19 -20 29 -14 93 l6 72 -41 37 c-23 20 -41 46
-41 57 0 31 -50 28 -80 -4 -32 -34 -40 -32 -40 15 0 56 -21 61 -71 15 -47 -42
-72 -42 -79 0 -6 38 -36 82 -61 90 -25 8 -53 -9 -116 -68 -49 -47 -55 -49 -79
-38 -22 10 -28 9 -39 -5 -23 -33 -30 8 -29 186 2 349 61 643 222 1095 100 283
403 1001 432 1026 15 13 54 17 197 22 406 14 850 90 1242 212 l118 37 56 -45
c97 -79 205 -109 387 -109 585 2 1290 441 1699 1058 193 290 313 604 368 964
24 160 24 519 0 685 -23 152 -67 332 -118 482 -42 123 -152 363 -166 363 -4
-1 -65 -116 -135 -258 -277 -561 -467 -879 -751 -1257 -305 -406 -533 -654
-922 -1002 -302 -270 -418 -413 -461 -571 -10 -34 -15 -64 -12 -67 8 -9 233
62 382 121 408 160 732 369 1022 658 162 163 241 258 366 446 160 240 282 511
383 850 51 171 69 192 40 48 -43 -209 -136 -479 -239 -688 -355 -725 -963
-1244 -1790 -1529 -422 -146 -847 -219 -1373 -237 -184 -6 -203 -6 -209 10 -4
9 20 84 56 179 184 477 283 892 305 1277 10 174 2 158 133 276 174 158 456
363 710 519 l62 38 60 -42 c233 -164 634 -117 1106 128 496 257 828 622 974
1071 57 173 75 287 75 475 0 237 -44 437 -144 650 -41 89 -145 255 -158 255
-5 0 -30 -37 -57 -82 -257 -434 -449 -652 -851 -968 -116 -90 -304 -238 -420
-329 -366 -287 -500 -415 -601 -577 -61 -97 -86 -172 -92 -271 -4 -69 -2 -83
11 -83 21 0 614 286 781 377 614 334 935 652 1111 1103 41 103 62 138 50 80
-29 -140 -147 -391 -253 -540 -94 -134 -327 -364 -484 -481 -220 -163 -435
-290 -943 -559 -466 -247 -712 -395 -930 -559 -60 -45 -111 -81 -116 -81 -4 0
-10 53 -13 118 -12 228 -27 399 -53 602 -15 113 -27 216 -26 230 1 61 253 646
433 1005 l115 230 105 1 c122 1 206 26 318 92 232 138 484 457 644 817 101
225 156 427 179 655 6 63 15 119 19 124 10 11 157 -38 370 -121 561 -221 1065
-524 1542 -925 162 -136 468 -440 607 -603 694 -809 1138 -1799 1276 -2844 36
-271 45 -422 45 -731 0 -309 -9 -460 -45 -731 -311 -2347 -2113 -4237 -4448
-4664 -336 -61 -608 -85 -987 -85 -649 0 -1203 92 -1804 300 -1501 520 -2721
1692 -3301 3175 -197 504 -312 995 -360 1545 -17 193 -20 673 -5 871 90 1170
544 2269 1311 3164 132 154 430 452 584 584 468 401 996 719 1565 944 507 200
997 313 1600 367 107 10 830 5 873 -5z"/>
</g>
</svg>
