<svg version="1.1" xmlns="http://www.w3.org/2000/svg" style="display: block;" viewBox="0 0 2048 1808" width="1000" height="883" preserveAspectRatio="none">
<defs>
	<linearGradient id="Gradient1" gradientUnits="userSpaceOnUse" x1="1235.82" y1="982.447" x2="1368.6" y2="1085.43">
		<stop class="stop0" offset="0" stop-opacity="1" stop-color="rgb(63,136,77)"/>
		<stop class="stop1" offset="1" stop-opacity="1" stop-color="rgb(77,166,106)"/>
	</linearGradient>
	<linearGradient id="Gradient2" gradientUnits="userSpaceOnUse" x1="1176.27" y1="830.854" x2="1214.9" y2="1068.89">
		<stop class="stop0" offset="0" stop-opacity="1" stop-color="rgb(64,144,73)"/>
		<stop class="stop1" offset="1" stop-opacity="1" stop-color="rgb(92,180,128)"/>
	</linearGradient>
</defs>
<path transform="translate(0,0)" fill="rgb(255,255,255)" d="M 0 0 L 2048 0 L 2048 1808 L 0 1808 L 0 0 z"/>
<path transform="translate(0,0)" fill="rgb(131,200,145)" d="M 987.879 832.486 C 989.034 813.628 991.732 794.814 993.403 775.99 C 994.523 763.369 994.501 750.098 996.652 737.647 C 997.246 734.213 998.096 731.292 1000.17 728.453 C 1002.51 725.26 1005.62 723.714 1009.54 723.271 C 1012.78 722.904 1016.2 723.792 1018.62 726.042 C 1020.21 727.524 1021.29 729.433 1021.86 731.517 C 1024.5 741.153 1024.61 752.307 1025.49 762.258 L 1029.99 816.842 C 1034.28 837.179 1035.27 867.13 1037.01 888.775 L 1045.66 986.14 C 1046.47 996.329 1046.8 1025.46 1050.27 1033.34 C 1046.5 1039.82 1049.63 1083.53 1051.94 1092.42 C 1052.54 1094.75 1053.36 1096.95 1054.33 1099.14 C 1052.14 1103.17 1061.59 1200.21 1061.98 1214.8 C 1061.03 1227.83 1062.06 1240.47 1063.09 1253.45 C 1064.95 1276.81 1065.13 1295.91 1081.19 1314.5 C 1105.71 1342.9 1141.6 1351.62 1176.41 1360.69 C 1182.57 1362.3 1193.71 1363.78 1198.94 1366.82 C 1151.43 1368.3 1103.61 1366.25 1056.09 1365.91 L 861.48 1365.49 C 859.252 1363.27 856.737 1361.31 854.324 1359.29 C 884.602 1351.32 917.601 1340.74 938.115 1315.66 C 952.313 1298.3 956.298 1280.82 954.018 1258.57 C 955.017 1231.23 958.039 1203.64 960.089 1176.34 C 962 1150.88 962.921 1125.09 965.908 1099.76 C 932.272 1067.7 899.054 1035.21 866.262 1002.28 C 847.433 983.548 828.735 964.365 808.989 946.607 C 784.96 944.413 751.287 948.858 729.517 938.781 C 724.059 936.255 719.106 932.615 715.758 927.56 C 706.4 913.433 701.476 893.834 695.653 877.849 C 688.31 858.237 681.117 838.571 674.072 818.85 C 695.592 818.939 717.113 818.907 738.633 818.753 C 752.941 818.682 769.482 816.885 783.37 820.057 C 791.124 821.828 797.996 825.739 803.762 831.154 C 825.494 851.561 830.386 891.644 831.503 920.108 C 845.956 932.765 861.231 944.417 876.126 956.539 C 907.929 981.939 939.314 1007.86 970.269 1034.28 C 973.439 1016.49 973.991 997.815 975.4 979.807 L 983.408 887.04 C 984.88 869.04 985.217 850.298 987.879 832.486 z"/>
<path transform="translate(0,0)" fill="rgb(88,170,87)" d="M 987.879 832.486 C 989.034 813.628 991.732 794.814 993.403 775.99 C 994.523 763.369 994.501 750.098 996.652 737.647 C 997.246 734.213 998.096 731.292 1000.17 728.453 C 1002.51 725.26 1005.62 723.714 1009.54 723.271 C 1012.78 722.904 1016.2 723.792 1018.62 726.042 C 1020.21 727.524 1021.29 729.433 1021.86 731.517 C 1024.5 741.153 1024.61 752.307 1025.49 762.258 L 1029.99 816.842 C 1029.85 820.09 1029.81 823.379 1029.4 826.606 C 1027.27 808.793 1026.26 790.832 1024.7 772.952 C 1023.71 761.626 1021.42 749.329 1022.06 738.028 C 1022.13 736.782 1021.9 736.142 1021.27 735.082 C 1015.34 732.979 1011.14 739.501 1003.94 735.712 C 1001.34 736.79 1000.67 737.446 999.612 740.106 C 993.676 755.028 993.089 832.164 988.358 839.776 C 988.261 837.339 988.218 834.904 987.879 832.486 z"/>
<path transform="translate(0,0)" fill="rgb(215,238,203)" d="M 822.047 1366.97 C 807.307 1368.52 791.447 1367.62 776.601 1367.69 L 680.329 1367.7 L 585.108 1367.51 C 569.265 1367.46 552.62 1368.6 536.878 1367.09 C 528.907 1366.33 520.762 1363.77 513.951 1359.5 C 503.637 1353.04 495.288 1340.18 492.779 1328.33 C 491.104 1320.42 493.358 1315.07 496.448 1307.92 C 500.945 1297.52 507.07 1287.96 512.433 1278 C 527.432 1250.13 543.289 1222.74 558.745 1195.13 L 590.906 1136.91 C 597.125 1125.56 602.953 1113.62 610.216 1102.9 C 635.344 1116.86 662.986 1125.7 691.549 1128.92 C 680.654 1151.84 610.704 1272.73 610.22 1284.2 C 609.794 1294.31 619.471 1302.44 625.909 1309 C 694.213 1308.19 762.522 1307.91 830.83 1308.14 C 867.495 1308.14 904.348 1309.6 940.977 1308.46 C 952.96 1292.34 950.543 1278.14 953.853 1259.45 C 953.905 1259.16 953.963 1258.87 954.018 1258.57 C 956.298 1280.82 952.313 1298.3 938.115 1315.66 C 917.601 1340.74 884.602 1351.32 854.324 1359.29 C 856.737 1361.31 859.252 1363.27 861.48 1365.49 L 1056.09 1365.91 C 1103.61 1366.25 1151.43 1368.3 1198.94 1366.82 C 1204.55 1366.82 1210.55 1366.44 1216.11 1367.11 C 1202.75 1369.44 1187.29 1368.07 1173.67 1368.03 L 1102.63 1368.09 C 1009.1 1368.7 915.568 1368.33 822.047 1366.97 z"/>
<path transform="translate(0,0)" fill="rgb(161,214,142)" d="M 1327.31 1129.24 C 1354.45 1126.86 1386.34 1118.45 1408.78 1102.98 C 1434.33 1144.57 1457.03 1188.43 1481.06 1230.94 C 1491.42 1249.27 1502.03 1267.42 1512.11 1285.91 C 1516.54 1294.05 1521.85 1302.3 1525.02 1311 C 1527.31 1317.28 1527.26 1325.5 1525.71 1331.95 C 1522.62 1344.82 1512.98 1355.61 1501.72 1362.12 C 1496.2 1365.31 1490.84 1366.42 1484.54 1366.99 C 1453.1 1369.83 1417.6 1368.07 1385.79 1367.92 C 1329.23 1368.01 1272.67 1367.74 1216.11 1367.11 C 1210.55 1366.44 1204.55 1366.82 1198.94 1366.82 C 1193.71 1363.78 1182.57 1362.3 1176.41 1360.69 C 1141.6 1351.62 1105.71 1342.9 1081.19 1314.5 C 1065.13 1295.91 1064.95 1276.81 1063.09 1253.45 C 1062.06 1240.47 1061.03 1227.83 1061.98 1214.8 C 1068.33 1246.31 1059.12 1283.05 1080.17 1309.95 C 1092.68 1306.76 1150.85 1307.92 1165.59 1308.97 C 1215.24 1308.24 1264.89 1308.05 1314.55 1308.39 C 1334.05 1308.47 1367.55 1310.49 1385.27 1308.15 C 1391.55 1307.31 1396.69 1305.22 1401.22 1300.65 C 1406.42 1295.41 1408.72 1288.94 1410.43 1281.95 C 1406.38 1267.48 1395.63 1252.75 1388.11 1239.68 C 1374.4 1215.41 1360.92 1191.02 1347.68 1166.49 C 1341.04 1154.47 1332.45 1141.88 1327.31 1129.24 z"/>
<path transform="translate(0,0)" fill="rgb(215,238,203)" d="M 1080.17 1309.95 C 1092.68 1306.76 1150.85 1307.92 1165.59 1308.97 C 1153.88 1312.63 1140.47 1308.93 1128.34 1310.62 C 1120.45 1311.72 1112.63 1318.17 1104.41 1315.62 C 1097.39 1313.44 1091.66 1308.97 1083.68 1311.02 L 1083.46 1312.08 C 1088.01 1316.06 1092.73 1319.93 1096.73 1324.47 L 1096.03 1325.05 C 1090.24 1321.54 1084.26 1315.35 1080.17 1309.95 z"/>
<path transform="translate(0,0)" fill="url(#Gradient2)" d="M 1186.85 920.431 C 1190.48 890.625 1193.46 848.032 1219.17 828.165 C 1224.43 824.099 1230.2 821.303 1236.71 819.923 C 1248.65 817.39 1262.67 819.019 1274.89 818.937 C 1298.21 818.781 1321.73 817.762 1345.02 818.987 C 1336.41 845.907 1326.27 872.547 1316.06 898.9 C 1312.58 907.892 1310.24 917.974 1305 926.115 C 1301.63 931.359 1296.9 935.362 1291.38 938.208 C 1272.65 947.857 1231.97 946.227 1209.9 947.16 C 1196.36 958.747 1184.18 972.126 1171.31 984.476 C 1131.92 1022.28 1093.61 1061.21 1054.33 1099.14 C 1053.36 1096.95 1052.54 1094.75 1051.94 1092.42 C 1049.63 1083.53 1046.5 1039.82 1050.27 1033.34 C 1093.9 993.684 1142.08 958.899 1186.85 920.431 z"/>
<path transform="translate(0,0)" fill="rgb(88,170,87)" d="M 1008.4 452.054 C 1011.4 452.352 1012.06 453.485 1014.01 455.811 C 1024.7 468.576 1077.99 541.514 1081.14 552.046 C 1084.75 564.084 1083.4 589.145 1082.07 601.928 C 1078.84 633.064 1053.32 661.893 1033.24 684.463 C 1027.29 691.159 1021.04 698.967 1014.03 704.563 C 1012.5 705.787 1011.08 706.65 1009.22 707.296 C 985.133 686.702 943.464 637.783 938.412 606.843 C 937.151 599.12 936.13 559.607 937.895 553.266 C 941.49 540.349 996.702 468.015 1008.4 452.054 z"/>
<path transform="translate(0,0)" fill="rgb(161,214,142)" d="M 1008.4 452.054 C 1011.43 517.049 1009.99 582.323 1010.2 647.368 C 1010.26 666.01 1007.72 689.903 1009.22 707.296 C 985.133 686.702 943.464 637.783 938.412 606.843 C 937.151 599.12 936.13 559.607 937.895 553.266 C 941.49 540.349 996.702 468.015 1008.4 452.054 z"/>
<path transform="translate(0,0)" fill="rgb(88,170,87)" d="M 1205.6 663.301 C 1207.43 663.035 1208.27 663.006 1209.97 663.772 C 1210.24 664.524 1210.43 664.965 1210.57 665.721 C 1211.29 669.85 1197.44 751.114 1195.12 759.412 C 1193.71 764.464 1191.64 768.932 1188.5 773.16 C 1169.47 798.818 1112.95 805.154 1082.24 809.697 C 1080.71 809.831 1079.29 810.162 1077.85 809.504 C 1076.71 808.984 1076.26 806.907 1076.04 805.752 C 1074.69 798.767 1075.94 791.168 1075.97 784.108 C 1076.11 754.607 1076.64 725.51 1094.66 700.403 C 1099.03 694.318 1104.46 689.137 1111.11 685.609 C 1128.6 676.317 1184.14 666.848 1205.6 663.301 z"/>
<path transform="translate(0,0)" fill="rgb(88,170,87)" d="M 809.624 662.294 C 827.531 665.246 845.509 669.727 863.258 673.551 C 876.484 676.4 890.891 678.3 903.506 683.277 C 909.463 685.619 914.875 689.162 919.403 693.685 C 948.387 722.555 943.247 772.489 943.5 809.749 C 943.064 809.811 942.629 809.884 942.192 809.935 C 934.275 810.863 870.438 796.667 860.562 793.055 C 852.409 790.074 844.499 786.074 837.734 780.587 C 832.38 776.244 827.775 770.862 825.29 764.357 C 821.492 754.416 820.932 742.729 819.308 732.241 C 815.587 708.996 812.358 685.675 809.624 662.294 z"/>
<path transform="translate(0,0)" fill="url(#Gradient1)" d="M 1304.33 982.419 C 1309.41 982.304 1315.12 982.558 1320.07 983.76 C 1327.41 985.603 1334.21 989.143 1339.93 994.094 C 1355.92 1007.8 1378.89 1046.16 1390.37 1065.28 C 1363.85 1078.18 1330.16 1088.66 1300.63 1087.87 C 1294.39 1087.04 1288.3 1085.98 1282.34 1083.87 C 1274.56 1081.13 1267.34 1076.99 1261.04 1071.66 C 1247.41 1060.26 1219.34 1025.09 1211.55 1008.71 C 1233.9 997.279 1278.9 984.114 1304.33 982.419 z"/>
<path transform="translate(0,0)" fill="rgb(161,214,142)" d="M 707.415 983.398 C 742.341 982.7 776.749 995.918 808.525 1009.3 C 786.289 1037.5 767.873 1076.49 730.266 1085.73 C 696.496 1092.42 659.322 1077.95 628.707 1064.35 C 636.493 1052.62 645.017 1041.31 653.062 1029.75 C 660.232 1019.44 667.036 1008.25 675.306 998.827 C 684.381 988.489 693.777 984.369 707.415 983.398 z"/>
<path transform="translate(0,0)" fill="rgb(161,214,142)" d="M 873.488 833.515 C 882.921 837.446 930.875 880.49 940.571 890.107 C 940.975 911.279 941.585 943.763 939.168 964.023 C 936.679 963.268 934.26 962.301 931.937 961.133 C 921.334 955.876 874.607 923.484 871.965 914.197 C 870.276 908.262 870.493 849.314 871.117 841.843 C 871.375 838.745 872.082 836.276 873.488 833.515 z"/>
<path transform="translate(0,0)" fill="rgb(131,200,145)" d="M 1145.31 834.558 L 1147.32 835.573 C 1151.14 843.907 1148.99 901.894 1148.97 915.463 C 1140.97 924.186 1095.35 960.686 1085.78 963.597 C 1084.84 962.764 1083.88 961.892 1083 960.995 C 1077.28 955.129 1079.27 900.709 1079.25 889.965 C 1086.57 881.767 1096.16 874.831 1104.6 867.787 C 1118.03 856.581 1131.36 845.11 1145.31 834.558 z"/>
<path transform="translate(0,0)" fill="rgb(131,200,145)" d="M 1188.85 1035.06 L 1190.99 1035.11 C 1200.74 1041.46 1212.94 1060.53 1219.74 1070.5 C 1203.48 1075.59 1185.49 1078.96 1168.63 1081.42 C 1167.5 1081.39 1166.37 1081.29 1165.25 1081.13 C 1156.8 1079.81 1140.98 1062.11 1136.66 1055.27 C 1151.74 1045.35 1171.74 1040.7 1188.85 1035.06 z"/>
<path transform="translate(0,0)" fill="rgb(131,200,145)" d="M 825.735 1035.34 C 845.316 1037.85 865.266 1047.4 883.743 1054.23 C 876.155 1064.82 866.013 1073.82 855.353 1081.2 C 836.591 1081.68 816.784 1074.62 799.041 1069.01 C 808.847 1058.65 815.85 1045.67 825.735 1035.34 z"/>
</svg>